<svg width="1431" height="388" viewBox="0 0 1431 388" fill="none" xmlns="http://www.w3.org/2000/svg">
<path d="M460.75 49.9488V155.917H488.931V94.2404H489.76L513.382 155.09H530.373L553.995 94.6543H554.824V155.917H583.004V49.9488H547.157L522.499 109.97H521.256L496.598 49.9488H460.75Z" fill="#3D66FF"/>
<path d="M625.456 49.9488H596.654V155.917H625.456V49.9488Z" fill="#3D66FF"/>
<path d="M639.106 155.917H710.801V132.737H667.908V49.9488H639.106V155.917Z" fill="#3D66FF"/>
<path d="M722.443 155.917H794.138V132.737H751.245V49.9488H722.443V155.917Z" fill="#3D66FF"/>
<path d="M834.583 49.9488H805.78V155.917H834.583V49.9488Z" fill="#3D66FF"/>
<path d="M951.008 102.933C951.008 67.5413 928.215 48.5 899.413 48.5C870.404 48.5 847.818 67.5413 847.818 102.933C847.818 138.118 870.404 157.366 899.413 157.366C928.215 157.366 951.008 138.325 951.008 102.933ZM921.377 102.933C921.377 121.974 913.711 132.323 899.413 132.323C885.116 132.323 877.449 121.974 877.449 102.933C877.449 83.8919 885.116 73.5434 899.413 73.5434C913.711 73.5434 921.377 83.8919 921.377 102.933Z" fill="#3D66FF"/>
<path d="M1056.13 49.9488H1027.33V105.417H1026.5L988.785 49.9488H964.335V155.917H993.137V100.243H993.758L1032.09 155.917H1056.13V49.9488Z" fill="#3D66FF"/>
<path d="M501.571 338.051C533.895 338.051 554.409 318.182 554.409 285.067C554.409 251.952 533.895 232.082 501.156 232.082H460.75V338.051H501.571ZM489.553 313.629V256.505H499.706C516.283 256.505 525.4 262.921 525.4 285.067C525.4 307.213 516.283 313.629 500.535 313.629H489.553Z" fill="#3D66FF"/>
<path d="M567.735 338.051H643.989V314.871H596.538V296.657H640.259V273.477H596.538V255.263H644.196V232.082H567.735V338.051Z" fill="#3D66FF"/>
<path d="M687.49 232.082H654.958L689.976 338.051H729.346L764.364 232.082H731.832L710.075 306.799H709.247L687.49 232.082Z" fill="#3D66FF"/>
<path d="M774.582 338.051H850.836V314.871H803.385V296.657H847.106V273.477H803.385V255.263H851.043V232.082H774.582V338.051Z" fill="#3D66FF"/>
<path d="M865.327 338.051H937.022V314.871H894.129V232.082H865.327V338.051Z" fill="#3D66FF"/>
<path d="M1047.31 285.067C1047.31 249.675 1024.52 230.634 995.714 230.634C966.705 230.634 944.119 249.675 944.119 285.067C944.119 320.252 966.705 339.5 995.714 339.5C1024.52 339.5 1047.31 320.459 1047.31 285.067ZM1017.68 285.067C1017.68 304.108 1010.01 314.457 995.714 314.457C981.416 314.457 973.75 304.108 973.75 285.067C973.75 266.026 981.416 255.677 995.714 255.677C1010.01 255.677 1017.68 266.026 1017.68 285.067Z" fill="#3D66FF"/>
<path d="M1060.64 338.051H1089.44V306.592H1105.39C1129.58 306.592 1145.8 292.363 1145.8 269.544C1145.8 246.984 1130 232.082 1106.43 232.082H1060.64V338.051ZM1089.44 284.239V255.056H1099.59C1109.69 255.056 1115.75 260.437 1115.75 269.544C1115.75 278.599 1109.69 284.239 1099.59 284.239H1089.44Z" fill="#3D66FF"/>
<path d="M1156.37 338.051H1232.62V314.871H1185.17V296.657H1228.89V273.477H1185.17V255.263H1232.83V232.082H1156.37V338.051Z" fill="#3D66FF"/>
<path d="M1247.11 338.051H1275.91V303.073H1285.86L1304.51 338.051H1335.8L1314.25 298.52C1325.54 293.087 1332.27 282.79 1332.27 268.095C1332.27 245.536 1316.47 232.082 1292.9 232.082H1247.11V338.051ZM1275.91 280.72V255.056H1286.07C1296.17 255.056 1302.23 258.989 1302.23 268.095C1302.23 277.15 1296.17 280.72 1286.07 280.72H1275.91Z" fill="#3D66FF"/>
<path d="M1401.74 265.198H1429.3C1429.2 244.397 1413.14 230.634 1387.44 230.634C1362.22 230.634 1344.4 244.19 1344.55 264.37C1344.5 280.927 1356 290.138 1374.8 294.174L1385.37 296.45C1397.18 299.037 1401.22 301.987 1401.33 306.799C1401.22 312.025 1396.46 315.698 1387.24 315.698C1376.2 315.698 1369.68 310.524 1369.21 300.797H1341.86C1341.96 327.392 1359.99 339.293 1387.65 339.293C1414.54 339.293 1430.65 327.703 1430.75 306.799C1430.65 290.655 1421.01 279.323 1397.6 274.304L1388.89 272.442C1378.84 270.32 1374.34 267.371 1374.6 262.3C1374.65 257.643 1378.53 254.228 1387.44 254.228C1396.77 254.228 1401.17 258.316 1401.74 265.198Z" fill="#3D66FF"/>
<rect width="388" height="388" rx="194" fill="#3D66FF"/>
<path d="M165.262 97V129.333H179.633V291H215.56V97H165.262Z" fill="white"/>
<path d="M237.111 250.583L323.335 191.462L237.111 137.417V160.428L286.96 191.462L237.111 226.905V250.583Z" fill="white"/>
<path d="M150.893 250.583L64.669 191.462L150.893 137.417V160.428L101.045 191.462L150.893 226.905V250.583Z" fill="white"/>
</svg>
