<svg width="118" height="32" viewBox="0 0 118 32" fill="none" xmlns="http://www.w3.org/2000/svg">
<path d="M38 4.11949V12.8592H40.3242V7.7724H40.3925L42.3407 12.7909H43.7421L45.6903 7.80654H45.7586V12.8592H48.0828V4.11949H45.1263L43.0927 9.0697H42.9901L40.9565 4.11949H38Z" fill="#3D66FF"/>
<path d="M51.584 4.11949H49.2085V12.8592H51.584V4.11949Z" fill="#3D66FF"/>
<path d="M52.7097 12.8592H58.6227V10.9474H55.0852V4.11949H52.7097V12.8592Z" fill="#3D66FF"/>
<path d="M59.5829 12.8592H65.4959V10.9474H61.9583V4.11949H59.5829V12.8592Z" fill="#3D66FF"/>
<path d="M68.8315 4.11949H66.4561V12.8592H68.8315V4.11949Z" fill="#3D66FF"/>
<path d="M78.4336 8.48933C78.4336 5.57041 76.5538 4 74.1784 4C71.7858 4 69.9231 5.57041 69.9231 8.48933C69.9231 11.3912 71.7858 12.9787 74.1784 12.9787C76.5538 12.9787 78.4336 11.4083 78.4336 8.48933ZM75.9899 8.48933C75.9899 10.0597 75.3575 10.9132 74.1784 10.9132C72.9992 10.9132 72.3669 10.0597 72.3669 8.48933C72.3669 6.91892 72.9992 6.06543 74.1784 6.06543C75.3575 6.06543 75.9899 6.91892 75.9899 8.48933Z" fill="#3D66FF"/>
<path d="M87.1033 4.11949H84.7279V8.69417H84.6595L81.5493 4.11949H79.5327V12.8592H81.9081V8.26743H81.9594L85.121 12.8592H87.1033V4.11949Z" fill="#3D66FF"/>
<path d="M41.3666 27.8805C44.0326 27.8805 45.7244 26.2418 45.7244 23.5107C45.7244 20.7795 44.0326 19.1408 41.3324 19.1408H38V27.8805H41.3666ZM40.3754 25.8663V21.155H41.2128C42.58 21.155 43.3319 21.6842 43.3319 23.5107C43.3319 25.3371 42.58 25.8663 41.2812 25.8663H40.3754Z" fill="#3D66FF"/>
<path d="M46.8235 27.8805H53.1124V25.9687H49.1989V24.4666H52.8048V22.5548H49.1989V21.0526H53.1295V19.1408H46.8235V27.8805Z" fill="#3D66FF"/>
<path d="M56.7001 19.1408H54.0171L56.9052 27.8805H60.1522L63.0403 19.1408H60.3573L58.5629 25.303H58.4945L56.7001 19.1408Z" fill="#3D66FF"/>
<path d="M63.883 27.8805H70.172V25.9687H66.2585V24.4666H69.8644V22.5548H66.2585V21.0526H70.1891V19.1408H63.883V27.8805Z" fill="#3D66FF"/>
<path d="M71.3672 27.8805H77.2801V25.9687H73.7426V19.1408H71.3672V27.8805Z" fill="#3D66FF"/>
<path d="M86.376 23.5107C86.376 20.5917 84.4961 19.0213 82.1207 19.0213C79.7282 19.0213 77.8654 20.5917 77.8654 23.5107C77.8654 26.4125 79.7282 28 82.1207 28C84.4961 28 86.376 26.4296 86.376 23.5107ZM83.9322 23.5107C83.9322 25.0811 83.2999 25.9346 82.1207 25.9346C80.9415 25.9346 80.3092 25.0811 80.3092 23.5107C80.3092 21.9403 80.9415 21.0868 82.1207 21.0868C83.2999 21.0868 83.9322 21.9403 83.9322 23.5107Z" fill="#3D66FF"/>
<path d="M87.475 27.8805H89.8505V25.2859H91.1664C93.1616 25.2859 94.4988 24.1124 94.4988 22.2304C94.4988 20.3698 93.1957 19.1408 91.2518 19.1408H87.475V27.8805ZM89.8505 23.4424V21.0356H90.6879C91.521 21.0356 92.0208 21.4794 92.0208 22.2304C92.0208 22.9772 91.521 23.4424 90.6879 23.4424H89.8505Z" fill="#3D66FF"/>
<path d="M95.3704 27.8805H101.659V25.9687H97.7458V24.4666H101.352V22.5548H97.7458V21.0526H101.676V19.1408H95.3704V27.8805Z" fill="#3D66FF"/>
<path d="M102.854 27.8805H105.23V24.9957H106.05L107.588 27.8805H110.169L108.391 24.6202C109.323 24.1721 109.878 23.3229 109.878 22.111C109.878 20.2504 108.575 19.1408 106.631 19.1408H102.854V27.8805ZM105.23 23.1522V21.0356H106.067C106.9 21.0356 107.4 21.3599 107.4 22.111C107.4 22.8578 106.9 23.1522 106.067 23.1522H105.23Z" fill="#3D66FF"/>
<path d="M115.607 21.872H117.88C117.872 20.1565 116.547 19.0213 114.428 19.0213C112.348 19.0213 110.878 20.1394 110.891 21.8037C110.887 23.1693 111.835 23.9289 113.386 24.2617L114.257 24.4495C115.232 24.6629 115.565 24.9061 115.573 25.303C115.565 25.734 115.172 26.037 114.411 26.037C113.501 26.037 112.963 25.6102 112.924 24.808H110.669C110.677 27.0014 112.164 27.9829 114.445 27.9829C116.663 27.9829 117.991 27.027 118 25.303C117.991 23.9715 117.197 23.037 115.266 22.623L114.548 22.4694C113.719 22.2945 113.347 22.0512 113.369 21.633C113.373 21.2489 113.693 20.9673 114.428 20.9673C115.197 20.9673 115.56 21.3044 115.607 21.872Z" fill="#3D66FF"/>
<rect width="32" height="32" rx="16" fill="#3D66FF"/>
<path d="M13.6299 8V10.6667H14.8151V24H17.7781V8H13.6299Z" fill="white"/>
<path d="M19.5557 20.6667L26.6669 15.7907L19.5557 11.3333V13.2312L23.6669 15.7907L19.5557 18.7138V20.6667Z" fill="white"/>
<path d="M12.4448 20.6667L5.33356 15.7907L12.4448 11.3333V13.2312L8.33362 15.7907L12.4448 18.7138V20.6667Z" fill="white"/>
</svg>
